<?xml version="1.0" encoding="UTF-8"?>
<svg xmlns="http://www.w3.org/2000/svg" version="1.1" viewBox="0 0 661.5 578">
  <defs>
    <style>
      .cls-1 {
        fill: #f5821f;
      }

      .cls-2 {
        fill: #006cb5;
      }
    </style>
  </defs>
  <!-- Generator: Adobe Illustrator 28.7.4, SVG Export Plug-In . SVG Version: 1.2.0 Build 166)  -->
  <g>
    <g id="Camada_1">
      <g id="Camada_1-2" data-name="Camada_1">
        <g id="Object">
          <g>
            <path class="cls-1" d="M446,75.8c0-41.8-34-75.8-75.8-75.8s-57.1,18.3-69.1,44.6C289.2,18.3,262.7,0,232,0s-76.2,34-75.8,75.8,1.5,17.3,4.3,25.2c3.2,9,8,17.2,14.1,24.2,2.6,3,5.4,5.8,8.5,8.4l115.6,114.9c.7.7,1.7,1.1,2.6,1.1s1.9-.4,2.6-1.1l120-119.2h0c7.8-7.8,13.9-17.3,17.7-27.8,2.9-8,4.5-16.7,4.5-25.7h-.1Z"/>
            <path class="cls-2" d="M661.3,364.8l.2-.6c-47.8,0-77-29.1-112.2-53.7-25.5-17.8-54.1-33.2-95.4-33.2s-34.2.2-47.6.6h-97.2c-14.2,0-25.7,11.5-25.7,25.7s11.5,25.7,25.7,25.7h91.2c18.4,3,32.5,18.9,32.5,38.2s-8.1,27.2-20.1,33.8c-2.9.8-16.9,4.5-35.5,9.4-12,2.9-23.4,6-34.1,9l-2.3.6c-40.1,10.6-83.2,22-91,23.8-5.2.3-9.9,0-14.1-1l-143.7-93.2-26-18.8h0c-1.2-.8-2.6-1.5-3.9-2.2-1.9-1-3.9-1.8-6-2.5-1.6-.5-3.4-.8-5.1-1.1-1.8-.3-3.7-.5-5.6-.5s-5.1.3-7.5.8c-21.2,1.9-37.9,19.5-37.9,41.2s4.8,21.8,12.3,29.2h0l.2.2c3,2.9,6.4,5.5,10.2,7.4l9.9,7.2,225.3,163.3h0c.9.3,1.8.7,2.8,1,5.1,1.7,10.4,2.9,16.1,2.9s6.5-.3,9.7-1l1.1-.3c76.3-19.4,234-59.5,307.8-77.7,1.8-.7,3.5-1.3,5.3-2,18.8-4.7,44.5-10.3,60.6-10.3v-10.8h.2l-.2-14.8v-96.4h0Z"/>
          </g>
        </g>
      </g>
    </g>
  </g>
</svg>