<?xml version="1.0" encoding="UTF-8"?>
<svg xmlns="http://www.w3.org/2000/svg" version="1.1" viewBox="0 0 457.6 315.7">
  <defs>
    <style>
      .cls-1 {
        fill: #006cb5;
      }

      .cls-1, .cls-2, .cls-3 {
        fill-rule: evenodd;
      }

      .cls-2 {
        fill: #f5821f;
      }

      .cls-3 {
        fill: #3d6cb1;
      }
    </style>
  </defs>
  <!-- Generator: Adobe Illustrator 28.7.4, SVG Export Plug-In . SVG Version: 1.2.0 Build 166)  -->
  <g>
    <g id="Camada_1">
      <g id="Layer_1">
        <g id="Layer_x5F_1">
          <g id="_678680096">
            <path id="_678680792" class="cls-1" d="M440.5,315.7H7.2c-4,0-7.2-3.2-7.2-7.1V86.4c0-3.9,3.2-7.2,7.2-7.2h309.1c4,0,7.1,3.2,7.1,7.2s-3.2,7.2-7.1,7.2H14.3v207.8h419V110c0-3.9,3.2-7.2,7.1-7.2s7.1,3.2,7.1,7.2v198.5c0,4-3.2,7.1-7.1,7.1h.1Z"/>
            <path id="_678680696" class="cls-1" d="M336.8,131.4h-186.7c-3.9,0-7.1-3.2-7.1-7.2s3.2-7.2,7.1-7.2h186.7c4,0,7.1,3.2,7.1,7.2s-3.2,7.2-7.2,7.2h.1Z"/>
            <path id="_678680648" class="cls-1" d="M387.4,179h-237.3c-3.9,0-7.1-3.2-7.1-7.1s3.2-7.1,7.1-7.1h237.4c4,0,7.1,3.2,7.1,7.1s-3.2,7.1-7.2,7.1Z"/>
            <path id="_678680576" class="cls-1" d="M387.4,226.6H60.2c-4,0-7.2-3.2-7.2-7.1s3.2-7.1,7.2-7.1h327.3c4,0,7.1,3.2,7.1,7.1s-3.2,7.1-7.1,7.1h-.1Z"/>
            <path id="_678681152" class="cls-1" d="M364.4,277.9c-4.4,0-8.8-1.5-12.3-4.3l-7.4-5.9c-1.3-1.1-3.1-1.4-4.7-1l-8.2,2.2c-8.4,2.3-17.4-1.4-21.9-8.8-1.4-2.3-3.6-2.5-4.5-2.6h0c-.9,0-3.1.3-4.5,2.5l-8.1,12.7c-2.1,3.3-6.5,4.3-9.9,2.2s-4.3-6.5-2.2-9.9l8.1-12.7c3.6-5.7,9.8-9.1,16.6-9.1h.2c6.8,0,13,3.6,16.6,9.4,1.2,2,3.7,3,5.9,2.4l8.2-2.2c6-1.6,12.5-.3,17.4,3.6l7.4,5.9c1.5,1.2,3.5,1.5,5.3.8l18.5-7.2c3.7-1.4,7.8.4,9.3,4s-.4,7.8-4,9.3l-18.5,7.2c-2.3.9-4.8,1.4-7.2,1.4h0Z"/>
            <path id="_678680600" class="cls-1" d="M76.6,187h-16.3c-4,0-7.2-3.2-7.2-7.1s3.2-7.1,7.2-7.1h16.3c2.5,0,4.5-2,4.5-4.5s-2-4.5-4.5-4.5h-4.7c-10.4,0-18.8-8.4-18.8-18.8s8.4-18.8,18.8-18.8h16.3c3.9,0,7.2,3.2,7.2,7.1s-3.2,7.1-7.2,7.1h-16.3c-2.5,0-4.5,2-4.5,4.5s2,4.5,4.5,4.5h4.7c10.4,0,18.8,8.4,18.8,18.8s-8.4,18.8-18.8,18.8h0Z"/>
            <path id="_678681128" class="cls-1" d="M74.3,196.4c-3.9,0-7.2-3.2-7.2-7.1v-9.3c0-3.9,3.2-7.1,7.2-7.1s7.2,3.2,7.2,7.1v9.3c0,3.9-3.2,7.1-7.2,7.1Z"/>
            <path id="_678680528" class="cls-1" d="M74.3,140.4c-3.9,0-7.2-3.2-7.2-7.1v-9.3c0-3.9,3.2-7.2,7.2-7.2s7.2,3.2,7.2,7.2v9.3c0,3.9-3.2,7.1-7.2,7.1Z"/>
            <path id="_678681080" class="cls-1" d="M382.8,149.5c-41.2,0-74.7-33.5-74.7-74.7S341.6,0,382.8,0s74.7,33.5,74.7,74.7-33.5,74.7-74.7,74.7h0ZM382.8,14.3c-33.3,0-60.4,27.1-60.4,60.4s27.1,60.4,60.4,60.4,60.4-27.1,60.4-60.4-27.1-60.4-60.4-60.4h0Z"/>
            <path id="_678681056" class="cls-3" d="M372.3,98.7c-1.8,0-3.7-.7-5.1-2.1l-12.7-12.7c-2.8-2.8-2.8-7.3,0-10.1s7.3-2.8,10.1,0l7.6,7.6,28.6-28.6c2.8-2.8,7.3-2.8,10.1,0,2.8,2.8,2.8,7.3,0,10.1l-33.6,33.6c-1.4,1.4-3.2,2.1-5,2.1h0Z"/>
            <path id="_678680360" class="cls-2" d="M372.3,98.7c-1.8,0-3.7-.7-5.1-2.1l-12.7-12.7c-2.8-2.8-2.8-7.3,0-10.1s7.3-2.8,10.1,0l7.6,7.6,28.6-28.6c2.8-2.8,7.3-2.8,10.1,0,2.8,2.8,2.8,7.3,0,10.1l-33.6,33.6c-1.4,1.4-3.2,2.1-5,2.1h0ZM382.8,135.2c33.3,0,60.4-27.1,60.4-60.4s-27.1-60.4-60.4-60.4-61.8,27.1-60.4,60.4.3,7,.9,10.4h0c5,28.3,29.8,49.9,59.5,49.9h0Z"/>
          </g>
        </g>
      </g>
    </g>
  </g>
</svg>