<?xml version="1.0" encoding="UTF-8"?>
<svg xmlns="http://www.w3.org/2000/svg" version="1.1" viewBox="0 0 456.2 421.9">
  <defs>
    <style>
      .cls-1 {
        fill: #006cb5;
      }

      .cls-1, .cls-2 {
        fill-rule: evenodd;
      }

      .cls-2 {
        fill: #f5821f;
      }
    </style>
  </defs>
  <!-- Generator: Adobe Illustrator 28.7.4, SVG Export Plug-In . SVG Version: 1.2.0 Build 166)  -->
  <g>
    <g id="Layer_1">
      <g>
        <path class="cls-2" d="M112.6,409.7c-1.2,0-2.5-.3-3.6-.8-4.4-2-6.4-7.2-4.4-11.6l15.7-34.7h19.3l-18.9,41.9c-1.5,3.2-4.7,5.2-8.1,5.2h0ZM302.9,409.7c-3.5,0-6.6-2-8-5.2l-18.9-41.9h16.7c.8,0,1.7,0,2.5-.1l15.7,34.8c2,4.4,0,9.6-4.4,11.6-1.1.5-2.4.8-3.6.8h0Z"/>
        <path class="cls-1" d="M46.8,21.4v19.3h0v19.3c0,5.2,4.2,9.4,9.4,9.4s9.4-4.2,9.4-9.4V21.3c0-5.2-4.2-9.4-9.4-9.4-5.2.1-9.4,4.3-9.4,9.5Z"/>
        <path class="cls-1" d="M12,69.3v35h432v-35c0-13-10.5-23.5-23.5-23.5h-1.1v14.2c0,10.8-8.8,19.6-19.6,19.6s-19.6-8.8-19.6-19.6v-14.2h-132.6v14.2c0,10.8-8.8,19.6-19.6,19.6s-19.6-8.8-19.6-19.6v-14.2H75.8v14.2c0,10.8-8.8,19.6-19.6,19.6s-19.6-8.8-19.6-19.6v-14.2h-1.1c-13,0-23.5,10.6-23.5,23.5Z"/>
        <path class="cls-1" d="M390.4,40.7v19.3c0,5.2,4.2,9.4,9.4,9.4s9.4-4.2,9.4-9.4V21.4c0-5.2-4.2-9.4-9.4-9.4s-9.4,4.2-9.4,9.4v19.3h0Z"/>
        <path class="cls-1" d="M218.6,40.7v19.3c0,5.2,4.2,9.4,9.4,9.4s9.4-4.2,9.4-9.4V21.3c0-5.2-4.2-9.4-9.4-9.4s-9.4,4.2-9.4,9.4v19.4h0Z"/>
        <path class="cls-2" d="M250.4,169.3c3.2,19.1,1.9,42.4-3.9,66.2l40.2,10.8c8-38.4-9.6-76.8-42-96.4,2.5,5.4,4.4,12,5.7,19.4h0Z"/>
        <path class="cls-2" d="M221.2,139.8c-17.6-4.7-45.3,23.3-59.8,72.8l75.3,20.2c5.4-22.4,6.7-44.1,3.7-61.8-3-17.4-10-28.7-19.2-31.2Z"/>
        <path class="cls-2" d="M152.2,148.9c-19.6,11.3-33.9,29-40.9,50.3l40.2,10.8c10-34.1,26.9-60.8,44.6-73.3-15.3.2-30.4,4.4-43.9,12.2h0Z"/>
        <path class="cls-1" d="M12,114.5v183.9c0,13,10.5,23.5,23.5,23.5h60.8c4.6-9,14-15.1,24.7-15.1h50.1l20.2-75.6-37.4-10c-.1,0-.2,0-.3-.1-.1,0-.2-.1-.3-.1l-49.9-13.4c-1.3-.3-2.4-1.2-3.1-2.4s-.9-2.6-.5-3.9c7-26.1,23.7-47.9,47.1-61.4,23.4-13.5,50.7-17.1,76.8-10.1,53.9,14.4,86,70,71.6,123.9-.4,1.3-1.2,2.4-2.4,3.1-.8.4-1.6.7-2.5.7s-.9-.1-1.3-.2l-50.1-13.4h-.2l-37.5-10.1-19.6,73.1h94.9l34.1-59.1c7.7-13.3,24.7-17.9,38-10.2s17.9,24.7,10.2,38l-26.8,46.4h88.2c13,0,23.5-10.5,23.5-23.5V114.5H12Z"/>
        <path class="cls-2" d="M279.6,317.1H121c-7.6,0-14,4.8-16.5,11.5,0,.1,0,.3,0,.4-.6,1.8-.9,3.7-.9,5.7,0,9.7,7.9,17.6,17.6,17.6h171.6c6.3,0,12.1-3.4,15.2-8.8l42.2-73.1c4.9-8.4,2-19.2-6.4-24-8.4-4.9-19.2-2-24,6.4l-35.6,61.7c-1,1.6-2.7,2.6-4.5,2.6h0Z"/>
      </g>
    </g>
  </g>
</svg>