<?xml version="1.0" encoding="UTF-8"?>
<svg id="Camada_1" xmlns="http://www.w3.org/2000/svg" viewBox="0 0 291.1 309.1">
  <defs>
    <style>
      .cls-1 {
        fill: #fff;
        fill-rule: evenodd;
      }
    </style>
  </defs>
  <g id="Layer_1">
    <g id="_493504632">
      <path id="_493504728" class="cls-1" d="M195.8,81.9c0,37.5-30.5,67.9-67.9,67.9s-67.9-30.5-67.9-67.9S90.4,14,127.9,14s67.9,30.5,67.9,67.9h0ZM0,17.5v244.6c0,9.6,7.9,17.4,17.5,17.5h220.8c9.6,0,17.4-7.9,17.5-17.5V17.6c0-9.7-7.9-17.6-17.5-17.6H17.4C7.8,0,0,7.9,0,17.5h0ZM18.7,167.8h218.4c2.8,0,5,2.2,5,5s-2.2,5-5,5H18.7c-2.8,0-5-2.2-5-5s2.2-5,5-5h0ZM18.7,197h194.9c2.8,0,5,2.2,5,5s-2.2,5-5,5H18.7c-2.8,0-5-2.2-5-5s2.2-5,5-5h0ZM44.3,226.2h192.8c2.8,0,5,2.2,5,5s-2.2,5-5,5H44.3c-2.8,0-5-2.2-5-5s2.2-5,5-5ZM18.7,255.5h200.4c2.8,0,5,2.2,5,5s-2.2,5-5,5H18.7c-2.8,0-5-2.2-5-5s2.2-5,5-5h0Z"/>
      <path id="_493504704" class="cls-1" d="M265.8,29.5v232.5c0,15.1-12.4,27.4-27.4,27.5H35.3v2.1c0,9.6,7.9,17.5,17.5,17.5h220.8c9.6,0,17.5-7.9,17.5-17.5V47c0-9.6-7.8-17.4-17.5-17.5h-7.8Z"/>
      <path id="_493505064" class="cls-1" d="M156.8,60.1l-50.8,50.8c-1,1-2.2,1.5-3.5,1.5s-2.6-.5-3.5-1.5c-1.9-1.9-1.9-5.1,0-7.1l50.9-50.8c1.9-2,5.1-2,7.1,0s1.9,5.1,0,7h0l-.2.1ZM121.3,60c0,8.5-6.9,15.3-15.3,15.3s-15.3-6.9-15.3-15.3,6.9-15.3,15.3-15.3,15.3,6.9,15.3,15.3ZM127.9,24c-31.9,0-57.9,26-57.9,57.9s26,57.9,57.9,57.9,57.9-26,57.9-57.9-26-57.9-57.9-57.9ZM149.9,88.6c8.4,0,15.3,6.9,15.3,15.3s-6.9,15.3-15.3,15.3-15.3-6.9-15.3-15.3,6.9-15.3,15.3-15.3h0Z"/>
      <path id="_493504968" class="cls-1" d="M100.6,60c0,3,2.4,5.4,5.3,5.4s5.3-2.4,5.3-5.3-2.4-5.3-5.3-5.3-5.3,2.4-5.3,5.3v-.1Z"/>
      <path id="_493505040" class="cls-1" d="M149.9,98.6c-2.9,0-5.4,2.4-5.4,5.3s2.4,5.3,5.4,5.3,5.4-2.4,5.4-5.3-2.4-5.3-5.4-5.3h0Z"/>
    </g>
  </g>
</svg>