<?xml version="1.0" encoding="UTF-8"?>
<svg xmlns="http://www.w3.org/2000/svg" version="1.1" viewBox="0 0 3336 3884.8">
  <defs>
    <style>
      .cls-1 {
        fill: #fff;
      }

      .cls-2 {
        fill: #f5821f;
      }

      .cls-3 {
        fill: #006cb5;
      }
    </style>
  </defs>
  <!-- Generator: Adobe Illustrator 28.7.4, SVG Export Plug-In . SVG Version: 1.2.0 Build 166)  -->
  <g>
    <g id="Camada_1">
      <g id="katman_1">
        <path class="cls-3" d="M674.4,2994.4c3.6,2.6,2.8,1.6,5.1,4.5,86.7,110.7,190.5,188.5,340.4,139.1,128.9-42.5,113.2-56.3,178.9,53.6,50.9,85.1,148.7,142.1,249.1,132-61.1,128.2-111.9,304.5-168.9,444.6l-86.7-111.8c-54.8-67.4-175.1-229-251.6-256.6-64.2-23.1-126.8,28.5-182.2,53.9l-305.1,138.3c34.1-79.2,59.2-164.2,89.3-245.2,43.8-117.6,92-233.2,131.8-352.2h0v-.2Z"/>
        <path class="cls-3" d="M2656.3,2992.1c13.1,24.1,26.5,77.9,38.7,107.7,62.1,151.2,140.8,341.6,191.3,496.8-86-32.7-406.1-205.1-465.5-199.8-72.4,6.3-214,187.8-262.7,244.4-36.9,40.8-71.5,83.3-105.6,126.4-51.8-113.1-122.7-324.3-155.3-440.8,263.8-51.8,203.5-158.7,295.2-215.8,58.1-3.6,87.2,19.8,140,34.3,100.5,27.7,294.3-42.3,323.8-153.2h.1Z"/>
        <path class="cls-3" d="M1860.8,84c219.1-13.8,168.5,134.1,273.9,200.1,177.9,111.5,243-78.5,399.6,24,118.1,77.3-8.5,196.8,118.1,321.7,148.3,146.2,286.7-10,364.3,151.5,59,122.6-48.5,194.4-23.3,313.3,31.5,148.6,224.4,136.6,252.8,280.7,29.1,147.8-113.5,156.4-118.9,292.7-5.2,130.7,159.3,128.6,111.6,289.7-40.6,136.9-154.2,111-221.3,212.7-112.2,169.9,84.9,241.8-15,385.2-102.1,146.7-355.4-12.5-409.9,274.2-19.2,100.7-2.2,151.6-105.9,203.1-199.1,99.1-238.3-167.4-426.4,101.1-69.3,98.9-204.2,134.7-298.2,46.3-16.4-15.4-31.4-33.5-49.9-46.3-82.2-56.4-120.9,68.4-229.6,88.2-200.2,30-188.9-116.9-286.7-179.9-103.5-66.7-120.2-9.7-217.7,10.4-111.1,22.9-227-42.4-237.4-162.1-2.3-26.6-.2-53-5.8-79.4-46.1-216.1-262.6-144.9-339.5-195.6-84.6-55.8-114.7-133.1-72.8-222.8,48.1-102.9,29.1-243-85.4-293.3-78.1-34.3-126.1-52.5-144.5-148.4-25.3-132.1,108.3-160.9,110.6-281.9,2.4-130.2-153.7-167.3-110.5-306.7,36-116.2,150.3-103.2,214.7-200.3,130-196.1-97.3-235.5,26-400.9,84.9-113.8,214.3-13.6,334.8-117.8,151.9-131.2.2-252.3,150.9-342.6,105.3-63.2,187,32.6,291.9,18.2,118.9-16.3,124.5-95.2,178.8-165.3,58.7-75.7,196.9-89.5,273.1-34.1,18.5,13.4,35.1,29.3,53.4,43,101.9,76.5,122.1-59.8,244.5-78.6h-.3Z"/>
        <path class="cls-3" d="M1649.6,406.6h7.1c398.9-4.9,796.3,205.9,1033.7,524.7,365.9,491.2,299.2,1176.5-124.1,1608.9-221.3,226.1-552.8,371.6-871.4,375.1-501.9,7.1-973.1-288-1177.5-746C145.2,1335.1,763.8,428.9,1649.6,406.6h0Z"/>
        <path class="cls-1" d="M1581.7,494.8c502.7-33.6,1002.2,273,1184,746.3,243.7,634.7-122.9,1361.4-784,1544.1-76.2,21.1-154.3,32.4-233,39.2l-6.2.5c-312.4,23.6-616.3-88.6-852.3-291C91.4,1848.8,577.6,568,1581.7,494.8h0Z"/>
        <path class="cls-2" d="M1439.3,1319.2c24.5-62.2,135-297.3,166.3-340.6,33.3-46.2,98.7-45.3,129.9.8,44.4,65.4,129.8,263.9,160,340.1,83.7,15.6,169.3,25.3,253.8,34.7,59,6.6,203.4-2,184.7,95.2-13.7,71-128.3,144.8-178.1,191.9-42.1,39.9-79.2,85.5-122.9,123.4,5.2,69.5,56.4,359.1,42.2,400.4-48.6,76.6-113.1,37.8-176.2,6.3-75.3-37.6-163.9-93.9-243.1-116.4-70.2,26.5-140.2,66.9-205.6,103.3-70.1,39.1-133.2,91.6-195.3,4-6.3-32.6,40.3-332,49.7-395.4-73.6-73.7-241.3-206.6-291.7-280-30.7-44.7-7.1-104,46.1-117.6,113-28.9,257.3-22.4,380.4-50.1h-.2Z"/>
        <path class="cls-2" d="M1672.8,1041.7c15.8,17.6,92,196.8,107.6,230.3,69.9,150.5,49.5,127.5,210.4,150.8l230.5,33.6c-48.4,56.3-271,241.2-277,292.9-8.2,70,41.7,278.5,51.2,364-114.8-37.2-209.8-120.1-329.9-147.7-59.1-6.6-254.4,117.4-322,147.3,18.6-90.1,51.9-290.7,50.3-381.8-36.1-60.9-221.9-217.8-279.8-275,109.9-16,253.7-26.1,359.5-55.2,53-14.6,66.3-88.9,87.2-133.3,35.5-75.5,71.3-153.1,112.1-225.8h0Z"/>
      </g>
    </g>
  </g>
</svg>