<?xml version="1.0" encoding="UTF-8"?>
<svg id="Camada_1" xmlns="http://www.w3.org/2000/svg" viewBox="0 0 3164.67 3685.1">
  <defs>
    <style>
      .cls-1 {
        fill: #fff;
      }
    </style>
  </defs>
  <g id="Camada_1-2" data-name="Camada_1">
    <g id="katman_1">
      <path class="cls-1" d="M588.96,2911.3c3.6,2.6,2.8,1.6,5.1,4.5,86.7,110.7,190.5,188.5,340.4,139.1,128.9-42.5,113.2-56.3,178.9,53.6,50.9,85.1,148.7,142.1,249.1,132-61.1,128.2-111.9,304.5-168.9,444.6l-86.7-111.8c-54.8-67.4-175.1-229-251.6-256.6-64.2-23.1-126.8,28.5-182.2,53.9l-305.1,138.3c34.1-79.2,59.2-164.2,89.3-245.2,43.8-117.6,92-233.2,131.8-352.2h0v-.2h-.1Z"/>
      <path class="cls-1" d="M2570.86,2909c13.1,24.1,26.5,77.9,38.7,107.7,62.1,151.2,140.8,341.6,191.3,496.8-86-32.7-406.1-205.1-465.5-199.8-72.4,6.3-214,187.8-262.7,244.4-36.9,40.8-71.5,83.3-105.6,126.4-51.8-113.1-122.7-324.3-155.3-440.8,263.8-51.8,203.5-158.7,295.2-215.8,58.1-3.6,87.2,19.8,140,34.3,100.5,27.7,294.3-42.3,323.8-153.2h.1Z"/>
      <path class="cls-1" d="M3041.86,1584.9c5.4-136.3,148-144.9,118.9-292.7-28.4-144.1-221.3-132.1-252.8-280.7-25.2-118.9,82.3-190.7,23.3-313.3-77.6-161.5-216-5.3-364.3-151.5-126.6-124.9,0-244.4-118.1-321.7-156.6-102.5-221.7,87.5-399.6-24-105.4-66-54.8-213.9-273.9-200.1v.1h.3c-122.4,18.8-142.6,155.1-244.5,78.6-18.3-13.7-34.9-29.6-53.4-43-76.2-55.4-214.4-41.6-273.1,34.1-54.3,70.1-59.9,149-178.8,165.3-104.9,14.4-186.6-81.4-291.9-18.2-150.7,90.3,1,211.4-150.9,342.6-120.5,104.2-249.9,4-334.8,117.8-123.3,165.4,104,204.8-26,400.9-64.4,97.1-178.7,84.1-214.7,200.3-43.2,139.4,112.9,176.5,110.5,306.7-2.3,121-135.9,149.8-110.6,281.9,18.4,95.9,66.4,114.1,144.5,148.4,114.5,50.3,133.5,190.4,85.4,293.3-41.9,89.7-11.8,167,72.8,222.8,76.9,50.7,293.4-20.5,339.5,195.6,5.6,26.4,3.5,52.8,5.8,79.4,10.4,119.7,126.3,185,237.4,162.1,97.5-20.1,114.2-77.1,217.7-10.4,97.8,63,86.5,209.9,286.7,179.9,108.7-19.8,147.4-144.6,229.6-88.2,18.5,12.8,33.5,30.9,49.9,46.3,94,88.4,228.9,52.6,298.2-46.3,188.1-268.5,227.3-2,426.4-101.1,103.7-51.5,86.7-102.4,105.9-203.1,54.5-286.7,307.8-127.5,409.9-274.2,99.9-143.4-97.2-215.3,15-385.2,67.1-101.7,180.7-75.8,221.3-212.7,47.7-161.1-116.8-159-111.6-289.7ZM1896.26,2702.1c-76.2,21.1-154.3,32.4-233,39.2l-6.2.5c-312.4,23.6-616.3-88.6-852.3-291C5.96,1765.7,492.16,484.9,1496.26,411.7c502.7-33.6,1002.2,273,1184,746.3,243.7,634.7-122.9,1361.4-784,1544.1Z"/>
      <path class="cls-1" d="M1353.86,1236.1c24.5-62.2,135-297.3,166.3-340.6,33.3-46.2,98.7-45.3,129.9.8,44.4,65.4,129.8,263.9,160,340.1,83.7,15.6,169.3,25.3,253.8,34.7,59,6.6,203.4-2,184.7,95.2-13.7,71-128.3,144.8-178.1,191.9-42.1,39.9-79.2,85.5-122.9,123.4,5.2,69.5,56.4,359.1,42.2,400.4-48.6,76.6-113.1,37.8-176.2,6.3-75.3-37.6-163.9-93.9-243.1-116.4-70.2,26.5-140.2,66.9-205.6,103.3-70.1,39.1-133.2,91.6-195.3,4-6.3-32.6,40.3-332,49.7-395.4-73.6-73.7-241.3-206.6-291.7-280-30.7-44.7-7.1-104,46.1-117.6,113-28.9,257.3-22.4,380.4-50.1h-.2Z"/>
      <path class="cls-1" d="M1587.36,958.6c15.8,17.6,92,196.8,107.6,230.3,69.9,150.5,49.5,127.5,210.4,150.8l230.5,33.6c-48.4,56.3-271,241.2-277,292.9-8.2,70,41.7,278.5,51.2,364-114.8-37.2-209.8-120.1-329.9-147.7-59.1-6.6-254.4,117.4-322,147.3,18.6-90.1,51.9-290.7,50.3-381.8-36.1-60.9-221.9-217.8-279.8-275,109.9-16,253.7-26.1,359.5-55.2,53-14.6,66.3-88.9,87.2-133.3,35.5-75.5,71.3-153.1,112.1-225.8h0l-.1-.1Z"/>
    </g>
  </g>
</svg>